<svg id="Layer_1" data-name="Layer 1" xmlns="http://www.w3.org/2000/svg" viewBox="0 0 1157.71 409.38"><defs><style>.cls-1{fill:#fff;}</style></defs><title>_</title><path class="cls-1" d="M181.24,109.26h-.44L152.52,64.1c-1.76-2.85-2.85-3.51-6.14-3.51H123.8c-3.07,0-3.73.44-3.73,4.39v66H135c2.63-.22,3.51-.44,5.7-3.07l19.73-22.8h.44V161h-.44L140.68,138.2c-2.19-2.42-3.07-2.85-5.92-2.85H120.07v66.2c0,3.95.66,4.38,3.73,4.38H149c3.73,0,5-.43,6.58-3.06l27.18-46.48h.44v53.93H63.73v-.44l14.69-13.81c1.76-1.75,2-2.41,2-5.26V75.72c0-2.85-.21-3.51-2-5.26L63.73,56.64v-.43H181.24Z"/><path class="cls-1" d="M201.12,268.8c-2,6.32-1.58,7.12,3.16,13.84l35.17,50.58V334H145.8v-.78l37.93-50.58c5.93-7.52,6.72-9.09,9.09-16.6L247.75,97.7c2.37-7.51,2.37-8.7-2.37-13.83L222.06,57v-.8h92.87l73.89,234.34c2,6.32,4.74,11.06,7.9,16.2l16.6,26.48V334h-117v-.78l19-26.48c2.37-3.16,2.37-5.54.79-10.67l-18.57-58.88H211.39Zm12.64-39.52h81.41l-39.91-128Z"/><path class="cls-1" d="M518.83,308.32l26.08,24.9V334H413.32v-.78l26.48-24.9c3.16-3.16,3.55-4.34,3.55-9.48V91.38c0-5.14-.39-6.33-3.55-9.49L413.32,57v-.79H544.91V57L518.83,81.89c-3.56,3.16-4,4.35-4,9.49V298.84C514.88,304,515.27,305.16,518.83,308.32Z"/><path class="cls-1" d="M604.25,249.82H587L584.77,256c-.37,1-.29,1.33.52,2.22l6.15,6.89v1.11H572.33v-1.11l7.11-7a5.7,5.7,0,0,0,1.48-2.15L592.62,224a2.57,2.57,0,0,0-.07-2.52l-2.89-6.36v-1h13.48l16.58,44a5.28,5.28,0,0,0,1.19,2.22l4.15,4.74v1.11H602.62v-1.11l4.81-4.44c.52-.52.52-.74.22-1.56Zm-16-3.34H603l-7.48-20.21Z"/><path class="cls-1" d="M652.6,266.18V260a12.45,12.45,0,0,1-11.41,7c-7.7,0-15-6.07-15-18.66,0-13.48,8.29-19.55,16.88-19.55a12.32,12.32,0,0,1,8.81,3.26V219.38c0-.81,0-1.11-.59-1.63l-3.7-3.63v-1l15-2.52v48.8a1.65,1.65,0,0,0,.67,1.63l4,4.15v1Zm-.67-9V235.89a6.69,6.69,0,0,0-5.63-2.66c-4.22,0-8.73,3.63-8.73,14.22,0,9.77,3.85,13.84,8,13.84A7.14,7.14,0,0,0,651.93,257.15Z"/><path class="cls-1" d="M683.77,234.41a1.48,1.48,0,0,0-.37,1.63l7.48,22.29,7.26-18.88a1.62,1.62,0,0,0-.15-1.85l-4.89-6.89v-1h14.44v1l-4.89,7a17.26,17.26,0,0,0-1.63,3.56l-9.62,25h-8.52l-11-30.06a7.18,7.18,0,0,0-1-2.15l-2.29-3.26v-1h18.73v1Z"/><path class="cls-1" d="M713.61,236.93c0-.81,0-1-.52-1.55l-4.44-4.67v-1h15.62v30.51a1.57,1.57,0,0,0,.67,1.55l4.22,3.41v1H708.65v-1l4.29-3.41a1.55,1.55,0,0,0,.67-1.55Zm4.74-25.47a5.81,5.81,0,0,1,6.07,6.14,5.88,5.88,0,0,1-6.07,6.08,6,6,0,0,1-6.07-6.08A5.89,5.89,0,0,1,718.35,211.46Z"/><path class="cls-1" d="M748.41,253.37l-5.85-1.93c-4.66-1.55-8.74-4.88-8.74-11,0-7.1,6.15-11.62,15.26-11.62a45.45,45.45,0,0,1,13.1,1.92l-3.48,10.37h-1l-5.11-8.22a1.49,1.49,0,0,0-1.11-.81,7.72,7.72,0,0,0-2.15-.15c-3.92,0-6.81,2-6.81,5.18,0,2.89,2.81,4.37,6.15,5.48l6.22,2.08c4.74,1.55,8.59,4.22,8.59,9.84,0,8.22-7.11,12.52-17,12.52a40.68,40.68,0,0,1-13.77-2.44l3.7-10.74h1l4.74,8.51c.52.82.59,1,1.18,1.19a15.86,15.86,0,0,0,3.48.37c3.93,0,7.56-1.7,7.63-5.55C754.48,255.74,752.19,254.63,748.41,253.37Z"/><path class="cls-1" d="M773.29,236.93c0-.81,0-1-.52-1.55l-4.44-4.67v-1H784v30.51a1.57,1.57,0,0,0,.67,1.55l4.22,3.41v1H768.33v-1l4.29-3.41a1.57,1.57,0,0,0,.67-1.55ZM778,211.46a5.81,5.81,0,0,1,6.07,6.14,5.88,5.88,0,0,1-6.07,6.08A6,6,0,0,1,772,217.6,5.88,5.88,0,0,1,778,211.46Z"/><path class="cls-1" d="M816.46,266.18v-1l4.22-3.41c.66-.52.66-.74.66-1.55,0-1.78.15-11.11.15-15.48,0-7.63-2.52-9.92-6.14-9.92-3,0-5.56,1.92-7.33,5.25v20.15a1.56,1.56,0,0,0,.66,1.55l4.22,3.41v1H792.39v-1l4.3-3.41a1.56,1.56,0,0,0,.66-1.55V236.93c0-.81,0-1-.52-1.55l-4.44-4.67v-1H807.2v7.11c2.3-4.37,6.07-8,12.59-8q12.44,0,12.44,16c0,3.85-.22,12.15-.22,15.48a1.45,1.45,0,0,0,.66,1.48l4.3,3.41v1Z"/><path class="cls-1" d="M839.78,275.66c0-3.55,3.33-6.07,8.37-7.18-4.22-1-7-3.63-7-7.26,0-4.15,3.48-7.26,8.44-8.66C845,251,841,247.45,841,241.3c0-7.78,6.67-12.44,16.37-12.44a22.64,22.64,0,0,1,10.14,2.07c.82.52,1.26.52,1.93-.15l8.14-7.55h1v10.44h-8a9.48,9.48,0,0,1,3.55,7.85c0,7.7-6.73,12.22-16.51,12.22a28.67,28.67,0,0,1-5.18-.44c-1.78.59-2.89,1.7-2.89,3.11,0,1.7,1.55,3,6.59,3h8.29c7.78,0,12.74,3.19,12.74,9.7,0,9.19-9.77,15.18-21,15.18C848.44,284.32,839.78,281.36,839.78,275.66Zm29.84-2c0-2.59-1.7-4.07-6.66-4.3L852.59,269l-1.93-.14a5.45,5.45,0,0,0-3.4,5.11c0,4.22,4.29,6.66,10.51,6.66S869.62,278,869.62,273.66ZM864,241.15c0-6.22-2.66-8.81-6.44-8.81s-6.52,2.52-6.52,8.74,2.74,9.25,6.52,9.25S864,247.37,864,241.15Z"/><path class="cls-1" d="M607.51,317.93l-5.26-6.3a2.19,2.19,0,0,0-2.22-1h-6.89v20c0,1,.3,1.11,1.18,1.11H605c1.11,0,1.26-.07,2.07-1.18l8.22-12.07h1.11V335H574.92v-1.11l5.56-4.51a1.46,1.46,0,0,0,.66-1.48V290.09a1.44,1.44,0,0,0-.66-1.48l-5.56-4.52V283h41v16.44h-1l-8.08-11.93c-.66-1.11-.88-1.18-2-1.18H594.32c-.88,0-1.18.15-1.18,1.11v19.77H600a2.26,2.26,0,0,0,2.22-1.11l5.26-6.29h1v18.14Z"/><path class="cls-1" d="M646.3,335v-1l4.22-3.4c.67-.52.67-.74.67-1.56,0-1.78.15-11.11.15-15.48,0-7.62-2.52-9.92-6.15-9.92-3,0-5.55,1.93-7.33,5.26v20.14a1.58,1.58,0,0,0,.67,1.56l4.22,3.4v1H622.24v-1l4.29-3.4a1.58,1.58,0,0,0,.67-1.56V305.78c0-.81,0-1-.52-1.55l-4.44-4.67v-1h14.81v7.11c2.29-4.37,6.07-8,12.59-8q12.43,0,12.44,16c0,3.85-.23,12.14-.23,15.47a1.47,1.47,0,0,0,.67,1.49l4.3,3.4v1Z"/><path class="cls-1" d="M667.85,335v-1l4.22-3.4a1.57,1.57,0,0,0,.66-1.56V288.23c0-.81,0-1.11-.59-1.62l-3.7-3.63v-1l15-2.51v49.61a1.57,1.57,0,0,0,.66,1.56l4.3,3.4v1Z"/><path class="cls-1" d="M696.13,305.78c0-.81,0-1-.52-1.55l-4.44-4.67v-1H706.8v30.51a1.57,1.57,0,0,0,.66,1.56l4.22,3.4v1H691.17v-1l4.3-3.4a1.57,1.57,0,0,0,.66-1.56Zm4.74-25.47a5.81,5.81,0,0,1,6.07,6.15,5.87,5.87,0,0,1-6.07,6.07,6,6,0,0,1-6.07-6.07A5.89,5.89,0,0,1,700.87,280.31Z"/><path class="cls-1" d="M714.49,344.51c0-3.55,3.34-6.07,8.37-7.18-4.22-1-7-3.63-7-7.26,0-4.14,3.48-7.25,8.44-8.66-4.52-1.56-8.59-5.11-8.59-11.26,0-7.77,6.66-12.44,16.36-12.44a22.67,22.67,0,0,1,10.15,2.08c.81.51,1.26.51,1.92-.15l8.15-7.55h1v10.44h-8a9.45,9.45,0,0,1,3.55,7.85c0,7.7-6.74,12.21-16.51,12.21a28,28,0,0,1-5.19-.44c-1.77.59-2.89,1.7-2.89,3.11,0,1.7,1.56,3,6.6,3h8.29c7.77,0,12.74,3.18,12.74,9.7,0,9.18-9.78,15.18-21,15.18C723.16,353.18,714.49,350.22,714.49,344.51Zm29.85-2c0-2.59-1.71-4.07-6.67-4.29l-10.36-.37-1.93-.15a5.44,5.44,0,0,0-3.41,5.11c0,4.22,4.3,6.66,10.52,6.66S744.34,346.88,744.34,342.51ZM738.71,310c0-6.22-2.67-8.82-6.44-8.82s-6.52,2.52-6.52,8.74,2.74,9.26,6.52,9.26S738.71,316.23,738.71,310Z"/><path class="cls-1" d="M777.21,303.71c-3,0-5.55,1.93-7.33,5.26v20.14a1.56,1.56,0,0,0,.67,1.56l4.29,3.4v1H754.33v-1l4.22-3.4a1.58,1.58,0,0,0,.67-1.56V288.23c0-.81,0-1.11-.6-1.62l-3.7-3.63v-1l15-2.51v25c2.89-4.45,6.3-6.82,11.85-6.82,8.22,0,12.37,5.33,12.37,16,0,3.85-.23,12.14-.23,15.47a1.47,1.47,0,0,0,.67,1.49l4.29,3.4v1H778.32v-1l4.22-3.4a1.49,1.49,0,0,0,.74-1.56c0-1.78.15-11.11.15-15.48C783.43,306.15,780.84,303.71,777.21,303.71Z"/><path class="cls-1" d="M815.71,285.64v13h10v4.07h-10v22c0,3.77,1.93,5.18,4.52,5.18a6,6,0,0,0,5.11-2.66l1,.44c-1.11,5-4.88,8.29-11.1,8.29-6.52,0-10.08-3.55-10.08-10.59V302.67h-5V298.6h3.26c1.11,0,1.4-.07,2.22-1.18l9.26-11.78Z"/><path class="cls-1" d="M839.7,316.82c.37,9.18,5.56,12.36,11.11,12.36A14.22,14.22,0,0,0,862,324.3l1,.52c-2.45,7.4-7.93,11.1-16.3,11.1-10.14,0-18-6.07-18-18.81,0-12.95,8.07-19.4,17.92-19.4,9.11,0,16.22,4.67,16.22,16.74v2.37Zm-.07-3.26h12.81c-.07-8.66-2-12.37-6.15-12.37C842.52,301.19,839.93,304.75,839.63,313.56Z"/><path class="cls-1" d="M890.8,335v-1l4.22-3.4c.66-.52.66-.74.66-1.56,0-1.78.15-11.11.15-15.48,0-7.62-2.52-9.92-6.14-9.92-3,0-5.56,1.93-7.34,5.26v20.14a1.58,1.58,0,0,0,.67,1.56l4.22,3.4v1H866.73v-1l4.29-3.4a1.56,1.56,0,0,0,.67-1.56V305.78c0-.81,0-1-.52-1.55l-4.44-4.67v-1h14.81v7.11c2.3-4.37,6.07-8,12.59-8q12.43,0,12.44,16c0,3.85-.22,12.14-.22,15.47a1.46,1.46,0,0,0,.66,1.49l4.3,3.4v1Z"/><path class="cls-1" d="M937.44,335v-1l4.22-3.4c.67-.52.67-.74.67-1.56,0-1.78.15-11.11.15-15.48,0-7.62-2.52-9.92-6.15-9.92-3,0-5.55,1.93-7.33,5.26v20.14a1.58,1.58,0,0,0,.67,1.56l4.22,3.4v1H913.38v-1l4.29-3.4a1.56,1.56,0,0,0,.67-1.56V305.78c0-.81,0-1-.52-1.55l-4.44-4.67v-1h14.81v7.11c2.29-4.37,6.07-8,12.59-8,5.85,0,9.55,2.67,11.25,8,2.67-4.81,6.44-8,12.89-8q12.21,0,12.22,16c0,3.85-.15,12.14-.15,15.47a1.46,1.46,0,0,0,.66,1.49l4.3,3.4v1H961.44v-1l4.22-3.4c.66-.52.66-.74.66-1.63,0-1.78.15-11,.15-15.41,0-7.62-2.52-9.92-6.07-9.92-3.18,0-5.7,2-7.55,5.48a28.11,28.11,0,0,1,.37,4.52c0,3.85-.23,12.14-.23,15.47a1.47,1.47,0,0,0,.67,1.49l4.3,3.4v1Z"/><path class="cls-1" d="M995,316.82c.37,9.18,5.55,12.36,11.1,12.36a14.25,14.25,0,0,0,11.19-4.88l1,.52c-2.45,7.4-7.93,11.1-16.29,11.1-10.15,0-18-6.07-18-18.81,0-12.95,8.07-19.4,17.92-19.4,9.11,0,16.22,4.67,16.22,16.74v2.37Zm-.08-3.26h12.81c-.07-8.66-2-12.37-6.14-12.37C997.79,301.19,995.2,304.75,994.9,313.56Z"/><path class="cls-1" d="M1046.07,335v-1l4.22-3.4c.66-.52.66-.74.66-1.56,0-1.78.15-11.11.15-15.48,0-7.62-2.52-9.92-6.14-9.92-3,0-5.56,1.93-7.33,5.26v20.14a1.57,1.57,0,0,0,.66,1.56l4.22,3.4v1H1022v-1l4.3-3.4a1.57,1.57,0,0,0,.66-1.56V305.78c0-.81,0-1-.52-1.55l-4.44-4.67v-1h14.81v7.11c2.3-4.37,6.07-8,12.59-8q12.43,0,12.44,16c0,3.85-.22,12.14-.22,15.47a1.46,1.46,0,0,0,.66,1.49l4.3,3.4v1Z"/><path class="cls-1" d="M1083.38,285.64v13h10v4.07h-10v22c0,3.77,1.93,5.18,4.52,5.18a6,6,0,0,0,5.11-2.66l1,.44c-1.11,5-4.88,8.29-11.1,8.29-6.52,0-10.08-3.55-10.08-10.59V302.67h-5V298.6H1071c1.11,0,1.4-.07,2.22-1.18l9.26-11.78Z"/></svg>